<mxfile modified="2020-09-02T03:06:41.468Z" host="app.diagrams.net" agent="5.0 (Windows NT 10.0; Win64; x64) AppleWebKit/537.36 (KHTML, like Gecko) Chrome/85.0.4183.83 Safari/537.36" etag="xOXVQmMbS1FA31fKJcG7" version="13.6.6" type="github">
  <diagram id="Ht1M8jgEwFfnCIfOTk4-" name="Page-1">
    <mxGraphModel dx="1038" dy="580" grid="1" gridSize="10" guides="1" tooltips="1" connect="1" arrows="1" fold="1" page="1" pageScale="1" pageWidth="1169" pageHeight="827" math="0" shadow="0">
      <root>
        <mxCell id="0" />
        <mxCell id="1" parent="0" />
        <mxCell id="FPnhrmUxTd6qLrcXvtV6-2" value="&lt;font style=&quot;font-size: 14px&quot;&gt;&lt;b&gt;PHP Server&lt;/b&gt;&lt;/font&gt;" style="outlineConnect=0;fontColor=#232F3E;gradientColor=none;fillColor=#277116;strokeColor=none;dashed=0;verticalLabelPosition=bottom;verticalAlign=top;align=center;html=1;fontSize=12;fontStyle=0;aspect=fixed;pointerEvents=1;shape=mxgraph.aws4.http_protocol;" vertex="1" parent="1">
          <mxGeometry x="420" y="310" width="84" height="84" as="geometry" />
        </mxCell>
        <mxCell id="FPnhrmUxTd6qLrcXvtV6-9" style="edgeStyle=none;rounded=0;orthogonalLoop=1;jettySize=auto;html=1;" edge="1" parent="1" source="FPnhrmUxTd6qLrcXvtV6-3" target="FPnhrmUxTd6qLrcXvtV6-2">
          <mxGeometry relative="1" as="geometry" />
        </mxCell>
        <mxCell id="FPnhrmUxTd6qLrcXvtV6-3" value="" style="outlineConnect=0;fontColor=#232F3E;gradientColor=none;fillColor=#5A30B5;strokeColor=none;dashed=0;verticalLabelPosition=bottom;verticalAlign=top;align=center;html=1;fontSize=12;fontStyle=0;aspect=fixed;pointerEvents=1;shape=mxgraph.aws4.glue_crawlers;" vertex="1" parent="1">
          <mxGeometry x="760" y="414" width="53" height="53" as="geometry" />
        </mxCell>
        <mxCell id="FPnhrmUxTd6qLrcXvtV6-10" style="edgeStyle=none;rounded=0;orthogonalLoop=1;jettySize=auto;html=1;" edge="1" parent="1" source="FPnhrmUxTd6qLrcXvtV6-4" target="FPnhrmUxTd6qLrcXvtV6-2">
          <mxGeometry relative="1" as="geometry" />
        </mxCell>
        <mxCell id="FPnhrmUxTd6qLrcXvtV6-4" value="&lt;b&gt;&lt;font style=&quot;font-size: 14px&quot;&gt;Go malware&lt;/font&gt;&lt;/b&gt;" style="outlineConnect=0;fontColor=#232F3E;gradientColor=none;fillColor=#232F3E;strokeColor=none;dashed=0;verticalLabelPosition=bottom;verticalAlign=top;align=center;html=1;fontSize=12;fontStyle=0;aspect=fixed;pointerEvents=1;shape=mxgraph.aws4.client;" vertex="1" parent="1">
          <mxGeometry x="140" y="510" width="78" height="76" as="geometry" />
        </mxCell>
        <mxCell id="FPnhrmUxTd6qLrcXvtV6-8" style="edgeStyle=none;rounded=0;orthogonalLoop=1;jettySize=auto;html=1;" edge="1" parent="1" source="FPnhrmUxTd6qLrcXvtV6-5" target="FPnhrmUxTd6qLrcXvtV6-3">
          <mxGeometry relative="1" as="geometry" />
        </mxCell>
        <mxCell id="FPnhrmUxTd6qLrcXvtV6-5" value="" style="outlineConnect=0;fontColor=#232F3E;gradientColor=none;fillColor=#232F3E;strokeColor=none;dashed=0;verticalLabelPosition=bottom;verticalAlign=top;align=center;html=1;fontSize=12;fontStyle=0;aspect=fixed;pointerEvents=1;shape=mxgraph.aws4.user;" vertex="1" parent="1">
          <mxGeometry x="850" y="520" width="78" height="78" as="geometry" />
        </mxCell>
      </root>
    </mxGraphModel>
  </diagram>
</mxfile>
